# Exported from Wings 3D 1.4.1
mtllib pistola.mtl
o cube9_copy11
#8 vertices, 6 faces
v 2.5476968e-2 0.86752280 -0.89923871
v 3.6164358e-2 0.94527012 -0.93945126
v 7.1637399e-2 0.94527012 -0.93945126
v 8.2324789e-2 0.86752280 -0.89923871
v 2.5476968e-2 0.86752280 -1.09899071
v 3.6164358e-2 0.94527012 -1.02765613
v 7.1637399e-2 0.94527012 -1.02765613
v 8.2324789e-2 0.86752280 -1.09899071
vn -0.71238219 -0.29080279 0.63870599
vn -0.47684668 0.76800732 0.42753011
vn 0.47684668 0.76800732 0.42753011
vn 0.71238219 -0.29080279 0.63870599
vn -0.79327320 -0.15033923 -0.59001334
vn -0.45177714 0.82643144 -0.33601859
vn 0.45177714 0.82643144 -0.33601859
vn 0.79327320 -0.15033923 -0.59001334
g cube9_copy11_default2
usemtl default2
s 1
f 1//1 4//4 3//3 2//2
f 1//1 5//5 8//8 4//4
f 2//2 6//6 5//5 1//1
f 3//3 7//7 6//6 2//2
f 4//4 8//8 7//7 3//3
f 6//6 7//7 8//8 5//5
o cube9_copy10
#8 vertices, 6 faces
v -2.8423911e-2 0.86752280 1.30575415
v -1.7736520e-2 0.94527012 1.30575415
v 1.7736520e-2 0.94527012 1.30575415
v 2.8423911e-2 0.86752280 1.30575415
v -2.8423911e-2 0.86752280 1.10600215
v -1.7736520e-2 0.94527012 1.21754929
v 1.7736520e-2 0.94527012 1.21754929
v 2.8423911e-2 0.86752280 1.10600215
vn -0.59984897 -0.52303274 0.60548986
vn -0.54765137 0.62808327 0.55280140
vn 0.54765137 0.62808327 0.55280140
vn 0.59984897 -0.52303274 0.60548986
vn -0.86546520 -3.7938373e-2 -0.49953044
vn -0.43711687 0.86329352 -0.25229574
vn 0.43711687 0.86329352 -0.25229574
vn 0.86546520 -3.7938373e-2 -0.49953044
g cube9_copy10_default2
usemtl default2
s 1
f 9//9 12//12 11//11 10//10
f 9//9 13//13 16//16 12//12
f 10//10 14//14 13//13 9//9
f 11//11 15//15 14//14 10//10
f 12//12 16//16 15//15 11//11
f 14//14 15//15 16//16 13//13
o cube9
#8 vertices, 6 faces
v -8.7096303e-2 0.86752280 -0.89923871
v -7.6408912e-2 0.94527012 -0.93945126
v -4.0935872e-2 0.94527012 -0.93945126
v -3.0248481e-2 0.86752280 -0.89923871
v -8.7096303e-2 0.86752280 -1.09899071
v -7.6408912e-2 0.94527012 -1.02765613
v -4.0935872e-2 0.94527012 -1.02765613
v -3.0248481e-2 0.86752280 -1.09899071
vn -0.71238219 -0.29080279 0.63870599
vn -0.47684668 0.76800732 0.42753011
vn 0.47684668 0.76800732 0.42753011
vn 0.71238219 -0.29080279 0.63870599
vn -0.79327320 -0.15033923 -0.59001334
vn -0.45177714 0.82643144 -0.33601859
vn 0.45177714 0.82643144 -0.33601859
vn 0.79327320 -0.15033923 -0.59001334
g cube9_default2
usemtl default2
s 1
f 17//17 20//20 19//19 18//18
f 17//17 21//21 24//24 20//20
f 18//18 22//22 21//21 17//17
f 19//19 23//23 22//22 18//18
f 20//20 24//24 23//23 19//19
f 22//22 23//23 24//24 21//21
o cylinder7_copy8
#16 vertices, 10 faces
v 5.0898249e-2 0.54936539 1.40804149
v 3.5990497e-2 0.51337489 1.40804149
v -1.2824869e-16 0.49846714 1.40804149
v -3.5990497e-2 0.51337489 1.40804149
v -5.0898249e-2 0.54936539 1.40804149
v -3.5990497e-2 0.58535589 1.40804149
v -1.4071516e-16 0.60026364 1.40804149
v 3.5990497e-2 0.58535589 1.40804149
v 5.0898249e-2 0.54936539 1.19935867
v 3.5990497e-2 0.51337489 1.19935867
v -1.2824869e-16 0.49846714 1.19935867
v -3.5990497e-2 0.51337489 1.19935867
v -5.0898249e-2 0.54936539 1.19935867
v -3.5990497e-2 0.58535589 1.19935867
v -1.4071516e-16 0.60026364 1.19935867
v 3.5990497e-2 0.58535589 1.19935867
vn 0.87946522 1.0568505e-16 0.47596315
vn 0.62187582 -0.62187582 0.47596315
vn 3.6989767e-16 -0.87946522 0.47596315
vn -0.62187582 -0.62187582 0.47596315
vn -0.87946522 -2.1137010e-16 0.47596315
vn -0.62187582 0.62187582 0.47596315
vn 3.9631894e-16 0.87946522 0.47596315
vn 0.62187582 0.62187582 0.47596315
vn 0.87946522 1.0568505e-16 -0.47596315
vn 0.62187582 -0.62187582 -0.47596315
vn -7.9263787e-17 -0.87946522 -0.47596315
vn -0.62187582 -0.62187582 -0.47596315
vn -0.87946522 -2.1137010e-16 -0.47596315
vn -0.62187582 0.62187582 -0.47596315
vn -5.2842525e-17 0.87946522 -0.47596315
vn 0.62187582 0.62187582 -0.47596315
g cylinder7_copy8_default2
usemtl default2
s 1
f 25//25 32//32 31//31 30//30 29//29 28//28 27//27 26//26
f 25//25 33//33 40//40 32//32
f 26//26 34//34 33//33 25//25
f 27//27 35//35 34//34 26//26
f 28//28 36//36 35//35 27//27
f 29//29 37//37 36//36 28//28
f 30//30 38//38 37//37 29//29
f 31//31 39//39 38//38 30//30
f 32//32 40//40 39//39 31//31
f 34//34 35//35 36//36 37//37 38//38 39//39 40//40 33//33
o cylinder7
#16 vertices, 10 faces
v 0.10157216 0.74122619 1.46544741
v 7.1822360e-2 0.66940383 1.46544741
v -1.2617971e-16 0.63965403 1.46544741
v -7.1822360e-2 0.66940383 1.46544741
v -0.10157216 0.74122619 1.46544741
v -7.1822360e-2 0.81304855 1.46544741
v -1.5105772e-16 0.84279835 1.46544741
v 7.1822360e-2 0.81304855 1.46544741
v 0.10157216 0.74122619 1.04900157
v 7.1822360e-2 0.66940383 1.04900157
v -1.2617971e-16 0.63965403 1.04900157
v -7.1822360e-2 0.66940383 1.04900157
v -0.10157216 0.74122619 1.04900157
v -7.1822360e-2 0.81304855 1.04900157
v -1.5105772e-16 0.84279835 1.04900157
v 7.1822360e-2 0.81304855 1.04900157
vn 0.87946522 3.9631894e-16 0.47596315
vn 0.62187582 -0.62187582 0.47596315
vn 1.8494884e-16 -0.87946522 0.47596315
vn -0.62187582 -0.62187582 0.47596315
vn -0.87946522 1.8494884e-16 0.47596315
vn -0.62187582 0.62187582 0.47596315
vn 1.5852757e-16 0.87946522 0.47596315
vn 0.62187582 0.62187582 0.47596315
vn 0.87946522 3.9631894e-16 -0.47596315
vn 0.62187582 -0.62187582 -0.47596315
vn 1.8494884e-16 -0.87946522 -0.47596315
vn -0.62187582 -0.62187582 -0.47596315
vn -0.87946522 1.8494884e-16 -0.47596315
vn -0.62187582 0.62187582 -0.47596315
vn 1.5852757e-16 0.87946522 -0.47596315
vn 0.62187582 0.62187582 -0.47596315
g cylinder7_default2
usemtl default2
s 1
f 41//41 48//48 47//47 46//46 45//45 44//44 43//43 42//42
f 41//41 49//49 56//56 48//48
f 42//42 50//50 49//49 41//41
f 43//43 51//51 50//50 42//42
f 44//44 52//52 51//51 43//43
f 45//45 53//53 52//52 44//44
f 46//46 54//54 53//53 45//45
f 47//47 55//55 54//54 46//46
f 48//48 56//56 55//55 47//47
f 50//50 51//51 52//52 53//53 54//54 55//55 56//56 49//49
o cube4_extract5
#16 vertices, 14 faces
v -4.1154480e-2 0.35921415 -0.16062653
v 4.1154480e-2 0.35921415 -0.16062653
v -4.1154480e-2 0.38532088 2.7350505e-2
v 4.1154480e-2 0.38532088 2.7350505e-2
v 4.1154480e-2 0.27239630 1.2805323e-2
v -4.1154480e-2 0.27239630 1.2805323e-2
v -4.1154480e-2 0.21898157 -7.0904833e-2
v 4.1154480e-2 0.21898157 -7.0904833e-2
v 4.1154480e-2 0.18006435 3.0889697e-2
v -4.1154480e-2 0.18006435 3.0889697e-2
v -4.1154480e-2 0.14961317 -2.6753739e-2
v 4.1154480e-2 0.14961317 -2.6753739e-2
v 4.1154480e-2 9.1418055e-2 0.10429949
v -4.1154480e-2 9.1418055e-2 0.10429949
v -4.1154480e-2 7.0897048e-2 7.3964046e-2
v 4.1154480e-2 7.0897048e-2 7.3964046e-2
vn -0.67976566 0.30695167 -0.66610758
vn 0.67976566 0.30695167 -0.66610758
vn -0.63576238 0.54850024 0.54309639
vn 0.63576238 0.54850024 0.54309639
vn 0.71167993 2.2937963e-2 0.70212928
vn -0.71167993 2.2937963e-2 0.70212928
vn -0.70710703 -0.38038079 -0.59607894
vn 0.70710703 -0.38038079 -0.59607894
vn 0.71810391 0.29802112 0.62889601
vn -0.71810391 0.29802112 0.62889601
vn -0.71223964 -0.47180539 -0.51972528
vn 0.71223964 -0.47180539 -0.51972528
vn 0.59692050 -0.11369664 0.79420337
vn -0.59692050 -0.11369664 0.79420337
vn -0.52594019 -0.85002083 -2.9180554e-2
vn 0.52594019 -0.85002083 -2.9180554e-2
g cube4_extract5_default2
usemtl default2
s 1
f 57//57 63//63 62//62 59//59
f 59//59 60//60 58//58 57//57
f 59//59 62//62 61//61 60//60
f 60//60 61//61 64//64 58//58
f 61//61 65//65 68//68 64//64
f 62//62 66//66 65//65 61//61
f 63//63 57//57 58//58 64//64
f 63//63 67//67 66//66 62//62
f 64//64 68//68 67//67 63//63
f 65//65 69//69 72//72 68//68
f 66//66 70//70 69//69 65//65
f 67//67 71//71 70//70 66//66
f 68//68 72//72 71//71 67//67
f 70//70 71//71 72//72 69//69
o cube4
#120 vertices, 115 faces
v -0.11826000 -0.69403548 -0.62330836
v -0.11826000 -0.55516989 -0.58717432
v 0.11826000 -0.55516989 -0.58717432
v 0.11826000 -0.69403548 -0.62330836
v -0.11826000 -0.67854946 -1.40432746
v -0.11826000 -0.40650412 -1.28787261
v 0.11826000 -0.40650412 -1.28787261
v 0.11826000 -0.67854946 -1.40432746
v -0.11826000 -0.48326376 -0.49369362
v 0.11826000 -0.48326376 -0.49369362
v 0.11826000 -0.32055734 -1.24208884
v -0.11826000 -0.32055734 -1.24208884
v 0.11826000 -0.77661357 -0.61646133
v -0.11826000 -0.77661357 -0.61646133
v -0.11826000 -0.75286835 -1.40470724
v 0.11826000 -0.75286835 -1.40470724
v 0.11826000 -0.84679839 -0.69678626
v -0.11826000 -0.84679839 -0.69678626
v -0.11826000 -0.83544197 -1.30229716
v 0.11826000 -0.83544197 -1.30229716
v -0.11826000 -0.40355740 -0.51017762
v 0.11826000 -0.40355740 -0.51017762
v 0.11826000 -0.23754730 -1.18423996
v -0.11826000 -0.23754730 -1.18423996
v -0.11826000 -0.29858664 -0.47007235
v 0.11826000 -0.29858664 -0.47007235
v 0.11826000 -0.14331351 -1.14083101
v -0.11826000 -0.14331351 -1.14083101
v -0.11826000 -0.24279266 -0.39642483
v 0.11826000 -0.24279266 -0.39642483
v 0.11826000 -7.5956637e-2 -1.10517585
v -0.11826000 -7.5956637e-2 -1.10517585
v -0.11826000 -0.17388225 -0.41678469
v 0.11826000 -0.17388225 -0.41678469
v 0.11826000 -4.5684650e-3 -1.07598045
v -0.11826000 -4.5684650e-3 -1.07598045
v -0.11826000 0.24820886 -0.25523854
v 0.11826000 0.24820886 -0.25523854
v 0.11826000 0.28816322 -0.98550176
v -0.11826000 0.28816322 -0.98550176
v -0.11826000 0.35087237 -0.19913551
v 0.11826000 0.35087237 -0.19913551
v 0.11826000 0.42024973 -1.01277848
v -0.11826000 0.42024973 -1.01277848
v -0.11826000 0.88930162 -0.18838078
v 0.11826000 0.88930162 -0.18838078
v 0.11826000 0.88764978 -1.01193480
v -0.11826000 0.88764978 -1.01193480
v -0.11826000 0.88941295 -1.10757628
v 0.11826000 0.88941295 -1.10757628
v 0.11826000 0.48861517 -1.11000573
v -0.11826000 0.48861517 -1.11000573
v -0.11826000 0.88794496 -1.17546688
v 0.11826000 0.88794496 -1.17546688
v 0.11826000 0.49719037 -1.16996748
v -0.11826000 0.49719037 -1.16996748
v 0.11826000 0.61433644 -1.17271718
v -0.11826000 0.61433644 -1.17271718
v -0.11826000 0.55234316 -1.22081405
v 0.11826000 0.55234316 -1.22081405
v 0.11826000 0.50338513 -1.21806435
v -0.11826000 0.50338513 -1.21806435
v 0.11826000 0.88692156 0.25087818
v -0.11826000 0.88692156 0.25087818
v -0.11826000 0.41425729 0.24012345
v 0.11826000 0.41425729 0.24012345
v 0.11826000 0.88901188 0.51205918
v -0.11826000 0.88901188 0.51205918
v -0.11826000 0.40904039 0.50130445
v 0.11826000 0.40904039 0.50130445
v 0.11826000 0.88916535 1.37322591
v -0.11826000 0.88916535 1.37322591
v -0.11826000 0.42289490 1.36247118
v 0.11826000 0.42289490 1.36247118
v -0.11826000 -1.7452677e-2 -0.35276879
v 0.11826000 -1.7452677e-2 -0.35276879
v -0.11826000 3.6043440e-2 -0.27944662
v 0.11826000 3.6043440e-2 -0.27944662
v 0.11826000 0.13723639 -0.24522126
v -0.11826000 0.13723639 -0.24522126
v -0.11826000 1.9637018e-2 -0.21452087
v 0.11826000 1.9637018e-2 -0.21452087
v 0.11826000 7.5523530e-2 -0.18774314
v -0.11826000 7.5523530e-2 -0.18774314
v -0.11826000 -2.5237756e-2 -8.3593291e-2
v 0.11826000 -2.5237756e-2 -8.3593291e-2
v 0.11826000 3.2510665e-2 -7.9779103e-2
v -0.11826000 3.2510665e-2 -7.9779103e-2
v -8.8695000e-2 -1.4896289e-2 0.26342418
v 8.8695000e-2 -1.4896289e-2 0.26342418
v 8.8695000e-2 4.2231496e-2 0.25730819
v -8.8695000e-2 4.2231496e-2 0.25730819
v -8.8695000e-2 7.1349877e-3 0.43929281
v 8.8695000e-2 7.1349877e-3 0.43929281
v 8.8695000e-2 0.11275472 0.34963195
v -8.8695000e-2 0.11275472 0.34963195
v 0.11826000 0.28060323 0.42026692
v -0.11826000 0.28060323 0.42026692
v -0.11826000 0.28519950 0.35086250
v 0.11826000 0.28519950 0.35086250
v -0.11826000 0.37697910 -1.1158478e-2
v 0.11826000 0.37697910 -1.1158478e-2
v 0.11826000 -0.91993935 -0.69815803
v -0.11826000 -0.91993935 -0.69815803
v -0.11826000 -0.90858294 -1.30366893
v 0.11826000 -0.90858294 -1.30366893
v -0.11826000 -0.92045120 -0.67086662
v 0.11826000 -0.92045120 -0.67086662
v 0.11826000 -0.84731024 -0.66949486
v -0.11826000 -0.84731024 -0.66949486
v 0.11826000 0.64956689 -0.19375815
v 0.11826000 0.65058942 0.24550081
v -7.4245674e-2 0.88930162 -0.18838078
v -7.4245674e-2 0.88692156 0.25087818
v 9.2055644e-2 0.86309765 -0.18852276
v 9.2055644e-2 0.86071759 0.25073620
v -7.4245674e-2 0.86309765 -0.18852276
v -7.4245674e-2 0.86071759 0.25073620
v 9.2055644e-2 0.65058942 0.24550081
v 9.2055644e-2 0.64956689 -0.19375815
vn -0.71214027 -6.0243800e-2 0.69944758
vn -0.72646586 -0.37938070 0.57299008
vn 0.72646586 -0.37938070 0.57299008
vn 0.71214027 -6.0243800e-2 0.69944758
vn -0.71416636 0.14234801 -0.68534915
vn -0.70742606 0.30549605 -0.63735432
vn 0.70742606 0.30549605 -0.63735432
vn 0.71416636 0.14234801 -0.68534915
vn -0.76287680 -0.22509029 0.60609682
vn 0.76287680 -0.22509029 0.60609682
vn 0.70773452 0.36869468 -0.60264092
vn -0.70773452 0.36869468 -0.60264092
vn 0.74602973 -0.25007160 0.61717408
vn -0.74602973 -0.25007160 0.61717408
vn -0.74291494 -0.28727005 -0.60461005
vn 0.74291494 -0.28727005 -0.60461005
vn 0.97236362 7.9988382e-2 0.21934188
vn -0.97236362 7.9988382e-2 0.21934188
vn -0.74401645 -0.28262115 -0.60544595
vn 0.74401645 -0.28262115 -0.60544595
vn -0.72145263 -5.5687597e-2 0.69022098
vn 0.72145263 -5.5687597e-2 0.69022098
vn 0.70849115 0.35075369 -0.61238234
vn -0.70849115 0.35075369 -0.61238234
vn -0.72088357 -0.41594615 0.55436060
vn 0.72088357 -0.41594615 0.55436060
vn 0.70724131 0.31339173 -0.63371551
vn -0.70724131 0.31339173 -0.63371551
vn -0.77229162 -0.19838023 0.60349891
vn 0.77229162 -0.19838023 0.60349891
vn 0.70753679 0.29942161 -0.64010810
vn -0.70753679 0.29942161 -0.64010810
vn -0.72736826 -3.4694944e-2 0.68536973
vn 0.72736826 -3.4694944e-2 0.68536973
vn 0.70745250 0.23835305 -0.66535613
vn -0.70745250 0.23835305 -0.66535613
vn -0.84309232 -0.10950066 0.52650257
vn 0.84309232 -0.10950066 0.52650257
vn 0.71833401 3.3424443e-2 -0.69489500
vn -0.71833401 3.3424443e-2 -0.69489500
vn -0.85920063 -0.42101839 0.29071945
vn 0.85920063 -0.42101839 0.29071945
vn 0.84997494 -0.28906470 -0.44043637
vn -0.84997494 -0.28906470 -0.44043637
vn -0.70710922 0.70710332 1.2065149e-3
vn 0.41358105 0.39807814 0.81883118
vn 0.70712524 0.70706447 5.8077580e-3
vn -0.70712524 0.70706447 5.8077580e-3
vn -0.70717768 0.70703498 -1.1264400e-3
vn 0.70717768 0.70703498 -1.1264400e-3
vn 0.71692321 -0.64807968 -0.25693160
vn -0.71692321 -0.64807968 -0.25693160
vn -0.57513644 0.56922235 -0.58754063
vn 0.57513644 0.56922235 -0.58754063
vn 0.70711539 -0.70065784 -9.5217749e-2
vn -0.70711539 -0.70065784 -9.5217749e-2
vn 0.72701863 0.21917324 -0.65069732
vn -0.72701863 0.21917324 -0.65069732
vn -0.47093627 0.26226927 -0.84227897
vn 0.47093627 0.26226927 -0.84227897
vn 0.54503272 -0.57113072 -0.61379886
vn -0.54503272 -0.57113072 -0.61379886
vn 0.40211119 0.41766378 -0.81477822
vn -0.70711474 0.70709823 -9.1387891e-4
vn -0.86366976 -0.47224478 -0.17623682
vn 0.86366976 -0.47224478 -0.17623682
vn 0.70710949 0.70709816 -2.8925357e-3
vn -0.70710949 0.70709816 -2.8925357e-3
vn -0.86264268 -0.44094952 0.24781270
vn 0.86264268 -0.44094952 0.24781270
vn 0.58187496 0.56845732 0.58161654
vn -0.58187496 0.56845732 0.58161654
vn -0.56996242 -0.58303160 0.57897927
vn 0.56996242 -0.58303160 0.57897927
vn -0.72061359 -0.42753419 0.54583017
vn 0.72061359 -0.42753419 0.54583017
vn -0.74136949 -0.65884174 0.12766694
vn 0.74136949 -0.65884174 0.12766694
vn 0.72642522 0.28020275 0.62752913
vn -0.72642522 0.28020275 0.62752913
vn -0.70740894 -0.67752199 -0.20133691
vn 0.70740894 -0.67752199 -0.20133691
vn 0.71574888 0.57637192 0.39433355
vn -0.71574888 0.57637192 0.39433355
vn -0.71446593 -0.69568421 -7.4578222e-2
vn 0.71446593 -0.69568421 -7.4578222e-2
vn 0.71052460 0.68703691 0.15210217
vn -0.71052460 0.68703691 0.15210217
vn -0.70565145 -0.70345572 8.4888715e-2
vn 0.70565145 -0.70345572 8.4888715e-2
vn 0.72830993 0.65523388 -0.20058217
vn -0.72830993 0.65523388 -0.20058217
vn -0.80284062 -0.42733376 0.41573165
vn 0.80284062 -0.42733376 0.41573165
vn 0.73613675 0.24727137 -0.63004727
vn -0.73613675 0.24727137 -0.63004727
vn 0.73186233 -0.22058673 0.64476277
vn -0.73186233 -0.22058673 0.64476277
vn -0.70309735 -0.27557119 -0.65552623
vn 0.70309735 -0.27557119 -0.65552623
vn -0.44721745 -0.88534177 0.12714760
vn 0.44721745 -0.88534177 0.12714760
vn 0.70710678 -0.70698245 -1.3259521e-2
vn -0.70710678 -0.70698245 -1.3259521e-2
vn -0.57735027 -0.56642240 -0.58807511
vn 0.57735027 -0.56642240 -0.58807511
vn -0.57735027 -0.58807511 0.56642240
vn 0.57735027 -0.58807511 0.56642240
vn 0.57735027 0.56642240 0.58807511
vn -0.57735027 0.56642240 0.58807511
vn 0.82122933 0.39920705 0.40769612
vn 0.81170471 0.41741007 -0.40853922
vn 0.40875625 0.81529092 0.41014514
vn 0.40734424 0.81687656 -0.40839117
vn 0.41255329 0.39708373 0.81983187
vn 0.40390048 0.41952934 -0.81293268
vn 0.57735027 0.57421355 0.58047003
vn 0.57735027 0.58047003 -0.57421355
vn 0.56885536 0.58776326 -0.57527205
vn 0.58582127 0.56700744 0.57906476
g cube4_default2
usemtl default2
s 1
f 73//73 76//76 75//75 74//74
f 73//73 86//86 85//85 76//76
f 74//74 78//78 77//77 73//73
f 74//74 81//81 84//84 78//78
f 75//75 82//82 81//81 74//74
f 76//76 80//80 79//79 75//75
f 76//76 85//85 88//88 80//80
f 77//77 87//87 86//86 73//73
f 78//78 79//79 80//80 77//77
f 78//78 84//84 83//83 79//79
f 79//79 83//83 82//82 75//75
f 80//80 88//88 87//87 77//77
f 81//81 93//93 96//96 84//84
f 82//82 94//94 93//93 81//81
f 83//83 95//95 94//94 82//82
f 84//84 96//96 95//95 83//83
f 85//85 89//89 92//92 88//88
f 86//86 90//90 89//89 85//85
f 87//87 91//91 90//90 86//86
f 88//88 92//92 91//91 87//87
f 89//89 175//175 178//178 92//92
f 89//89 181//181 180//180 175//175
f 90//90 182//182 181//181 89//89
f 91//91 177//177 176//176 90//90
f 92//92 178//178 177//177 91//91
f 93//93 97//97 100//100 96//96
f 94//94 98//98 97//97 93//93
f 95//95 99//99 98//98 94//94
f 96//96 100//100 99//99 95//95
f 97//97 101//101 104//104 100//100
f 98//98 102//102 101//101 97//97
f 99//99 103//103 102//102 98//98
f 100//100 104//104 103//103 99//99
f 101//101 105//105 108//108 104//104
f 102//102 106//106 105//105 101//101
f 103//103 107//107 106//106 102//102
f 104//104 108//108 107//107 103//103
f 105//105 147//147 109//109 112//112 108//108
f 106//106 148//148 147//147 105//105
f 107//107 111//111 110//110 148//148 106//106
f 108//108 112//112 111//111 107//107
f 109//109 113//113 116//116 112//112
f 109//109 152//152 151//151 110//110
f 110//110 114//114 113//113 109//109
f 110//110 151//151 150//150 148//148
f 111//111 115//115 114//114 110//110
f 112//112 116//116 115//115 111//111
f 113//113 117//117 120//120 116//116
f 113//113 173//173 137//137 136//136 117//117
f 114//114 174//174 173//173 113//113
f 115//115 119//119 118//118 183//183 114//114
f 115//115 123//123 122//122 119//119
f 116//116 124//124 123//123 115//115
f 118//118 119//119 120//120 117//117 185//185
f 119//119 122//122 121//121 120//120
f 120//120 121//121 124//124 116//116
f 121//121 125//125 130//130 128//128 124//124
f 122//122 126//126 125//125 121//121
f 123//123 127//127 129//129 126//126 122//122
f 124//124 128//128 127//127 123//123
f 126//126 129//129 130//130 125//125
f 127//127 133//133 132//132 129//129
f 128//128 134//134 133//133 127//127
f 129//129 132//132 131//131 130//130
f 130//130 131//131 134//134 128//128
f 132//132 133//133 134//134 131//131
f 135//135 139//139 142//142 138//138 184//184
f 135//135 188//188 190//190 186//186
f 136//136 140//140 139//139 135//135 186//186
f 137//137 141//141 140//140 136//136
f 137//137 171//171 170//170 141//141
f 137//137 173//173 174//174 138//138
f 138//138 172//172 171//171 137//137
f 139//139 143//143 146//146 142//142
f 140//140 144//144 143//143 139//139
f 141//141 145//145 144//144 140//140
f 141//141 170//170 169//169 142//142
f 142//142 146//146 145//145 141//141
f 142//142 169//169 172//172 138//138
f 144//144 145//145 146//146 143//143
f 147//147 149//149 152//152 109//109
f 148//148 150//150 149//149 147//147
f 149//149 153//153 156//156 152//152
f 150//150 154//154 153//153 149//149
f 151//151 155//155 154//154 150//150
f 152//152 156//156 155//155 151//151
f 153//153 157//157 160//160 156//156
f 154//154 158//158 157//157 153//153
f 155//155 159//159 158//158 154//154
f 156//156 160//160 159//159 155//155
f 157//157 161//161 164//164 160//160
f 158//158 162//162 161//161 157//157
f 159//159 163//163 162//162 158//158
f 160//160 164//164 163//163 159//159
f 161//161 165//165 168//168 164//164
f 162//162 166//166 165//165 161//161
f 163//163 167//167 166//166 162//162
f 164//164 168//168 167//167 163//163
f 165//165 170//170 171//171 168//168
f 166//166 169//169 170//170 165//165
f 167//167 172//172 169//169 166//166
f 168//168 171//171 172//172 167//167
f 175//175 180//180 179//179 176//176
f 176//176 177//177 178//178 175//175
f 176//176 179//179 182//182 90//90
f 180//180 181//181 182//182 179//179
f 183//183 184//184 138//138 174//174 114//114
f 183//183 192//192 191//191 184//184
f 184//184 191//191 188//188 135//135
f 185//185 189//189 187//187 118//118
f 186//186 185//185 117//117 136//136
f 186//186 190//190 189//189 185//185
f 187//187 189//189 190//190 188//188
f 187//187 192//192 183//183 118//118
f 188//188 191//191 192//192 187//187
